<svg width="250" height="181" viewBox="0 0 250 181" fill="none" xmlns="http://www.w3.org/2000/svg">
<g opacity="0.2">
<path d="M250 91.2284L177.202 47.3857L195.378 91.2284L177.202 135.071L250 91.2284Z" fill="white"/>
<path d="M250 91.2284L177.202 47.3857L195.378 91.2284L177.202 135.071L250 91.2284Z" fill="white"/>
<path d="M-5.01201e-07 91.1909L72.7978 135.034L54.6224 91.1909L72.7978 47.3483L-5.01201e-07 91.1909Z" fill="white"/>
<path d="M-5.01201e-07 91.1909L72.7978 135.034L54.6224 91.1909L72.7978 47.3483L-5.01201e-07 91.1909Z" fill="white"/>
<path d="M125.011 0L82.9814 75.9377L125.011 56.9784L167.041 75.9377L125.011 0Z" fill="white"/>
<path d="M125.01 181L167.04 105.062L125.01 124.022L82.9805 105.062L125.01 181Z" fill="white"/>
<path fill-rule="evenodd" clip-rule="evenodd" d="M230 38C220.059 38 212 29.9411 212 20C212 10.0589 220.059 2 230 2C239.941 2 248 10.0589 248 20C248 29.9411 239.941 38 230 38ZM231.261 9.05882C233.433 9.05882 235.193 10.8196 235.193 12.9916V18.8403H235.294C236.464 18.8403 237.412 19.7884 237.412 20.958V28.8235C237.412 29.9931 236.464 30.9412 235.294 30.9412H224.403C223.234 30.9412 222.286 29.9931 222.286 28.8235V20.958C222.286 19.7884 223.234 18.8403 224.403 18.8403H232.773V12.9916C232.773 12.1562 232.096 11.479 231.261 11.479H228.538C227.702 11.479 227.025 12.1562 227.025 12.9916V14.8067H224.605V12.9916C224.605 10.8196 226.366 9.05882 228.538 9.05882H231.261Z" fill="white"/>
</g>
</svg>
